<svg xmlns="http://www.w3.org/2000/svg" xmlns:xlink="http://www.w3.org/1999/xlink" width="1640" zoomAndPan="magnify" viewBox="0 0 1230 693.000001" height="924" preserveAspectRatio="xMidYMid meet" version="1.0"><defs><g/></defs><path fill="#ffffff" d="M 63.414062 278.019531 L 563.480469 278.019531 L 563.480469 413.980469 L 63.414062 413.980469 L 63.414062 278.019531 " fill-opacity="1" fill-rule="nonzero"/><g fill="#737373" fill-opacity="1"><g transform="translate(63.372221, 385.851143)"><g><path d="M 34.859375 1.34375 C 28.703125 1.34375 22.742188 0.507812 16.984375 -1.15625 C 11.234375 -2.832031 6.613281 -5.007812 3.125 -7.6875 L 9.25 -21.28125 C 12.59375 -18.820312 16.566406 -16.847656 21.171875 -15.359375 C 25.773438 -13.878906 30.378906 -13.140625 34.984375 -13.140625 C 40.097656 -13.140625 43.878906 -13.898438 46.328125 -15.421875 C 48.785156 -16.953125 50.015625 -18.976562 50.015625 -21.5 C 50.015625 -23.351562 49.289062 -24.890625 47.84375 -26.109375 C 46.394531 -27.335938 44.535156 -28.320312 42.265625 -29.0625 C 40.003906 -29.8125 36.941406 -30.632812 33.078125 -31.53125 C 27.140625 -32.9375 22.273438 -34.34375 18.484375 -35.75 C 14.703125 -37.164062 11.453125 -39.429688 8.734375 -42.546875 C 6.023438 -45.671875 4.671875 -49.832031 4.671875 -55.03125 C 4.671875 -59.5625 5.894531 -63.660156 8.34375 -67.328125 C 10.800781 -71.003906 14.5 -73.921875 19.4375 -76.078125 C 24.375 -78.234375 30.40625 -79.3125 37.53125 -79.3125 C 42.507812 -79.3125 47.375 -78.71875 52.125 -77.53125 C 56.882812 -76.34375 61.046875 -74.632812 64.609375 -72.40625 L 59.03125 -58.703125 C 51.832031 -62.785156 44.628906 -64.828125 37.421875 -64.828125 C 32.378906 -64.828125 28.648438 -64.007812 26.234375 -62.375 C 23.816406 -60.738281 22.609375 -58.585938 22.609375 -55.921875 C 22.609375 -53.242188 24 -51.253906 26.78125 -49.953125 C 29.570312 -48.660156 33.828125 -47.378906 39.546875 -46.109375 C 45.484375 -44.703125 50.34375 -43.289062 54.125 -41.875 C 57.914062 -40.46875 61.164062 -38.238281 63.875 -35.1875 C 66.59375 -32.144531 67.953125 -28.023438 67.953125 -22.828125 C 67.953125 -18.378906 66.707031 -14.316406 64.21875 -10.640625 C 61.726562 -6.960938 57.992188 -4.046875 53.015625 -1.890625 C 48.046875 0.265625 41.992188 1.34375 34.859375 1.34375 Z M 34.859375 1.34375 "/></g></g></g><g fill="#737373" fill-opacity="1"><g transform="translate(134.411665, 385.851143)"><g><path d="M 69.625 -14.484375 L 69.625 0 L 9.25 0 L 9.25 -77.96875 L 68.171875 -77.96875 L 68.171875 -63.5 L 27.171875 -63.5 L 27.171875 -46.5625 L 63.375 -46.5625 L 63.375 -32.53125 L 27.171875 -32.53125 L 27.171875 -14.484375 Z M 69.625 -14.484375 "/></g></g></g><g fill="#737373" fill-opacity="1"><g transform="translate(209.125563, 385.851143)"><g><path d="M 58.921875 0 L 43.890625 -21.71875 L 27.296875 -21.71875 L 27.296875 0 L 9.25 0 L 9.25 -77.96875 L 43 -77.96875 C 49.90625 -77.96875 55.898438 -76.816406 60.984375 -74.515625 C 66.066406 -72.210938 69.984375 -68.945312 72.734375 -64.71875 C 75.484375 -60.488281 76.859375 -55.476562 76.859375 -49.6875 C 76.859375 -43.882812 75.460938 -38.882812 72.671875 -34.6875 C 69.890625 -30.5 65.9375 -27.289062 60.8125 -25.0625 L 78.3125 0 Z M 58.59375 -49.6875 C 58.59375 -54.0625 57.179688 -57.414062 54.359375 -59.75 C 51.535156 -62.09375 47.414062 -63.265625 42 -63.265625 L 27.296875 -63.265625 L 27.296875 -36.09375 L 42 -36.09375 C 47.414062 -36.09375 51.535156 -37.28125 54.359375 -39.65625 C 57.179688 -42.03125 58.59375 -45.375 58.59375 -49.6875 Z M 58.59375 -49.6875 "/></g></g></g><g fill="#737373" fill-opacity="1"><g transform="translate(290.965677, 385.851143)"><g><path d="M 69.625 -14.484375 L 69.625 0 L 9.25 0 L 9.25 -77.96875 L 68.171875 -77.96875 L 68.171875 -63.5 L 27.171875 -63.5 L 27.171875 -46.5625 L 63.375 -46.5625 L 63.375 -32.53125 L 27.171875 -32.53125 L 27.171875 -14.484375 Z M 69.625 -14.484375 "/></g></g></g><g fill="#737373" fill-opacity="1"><g transform="translate(365.679575, 385.851143)"><g><path d="M 80.765625 -77.96875 L 80.765625 0 L 65.9375 0 L 27.0625 -47.34375 L 27.0625 0 L 9.25 0 L 9.25 -77.96875 L 24.171875 -77.96875 L 62.9375 -30.625 L 62.9375 -77.96875 Z M 80.765625 -77.96875 "/></g></g></g><g fill="#737373" fill-opacity="1"><g transform="translate(455.647999, 385.851143)"><g><path d="M 69.625 -14.484375 L 69.625 0 L 9.25 0 L 9.25 -77.96875 L 68.171875 -77.96875 L 68.171875 -63.5 L 27.171875 -63.5 L 27.171875 -46.5625 L 63.375 -46.5625 L 63.375 -32.53125 L 27.171875 -32.53125 L 27.171875 -14.484375 Z M 69.625 -14.484375 "/></g></g></g><g fill="#737373" fill-opacity="1"><g transform="translate(530.296154, 385.851143)"><g/></g></g><path fill="#ffffff" d="M 528.242188 278.019531 L 1209.199219 278.019531 L 1209.199219 413.980469 L 528.242188 413.980469 L 528.242188 278.019531 " fill-opacity="1" fill-rule="nonzero"/><g fill="#737373" fill-opacity="1"><g transform="translate(528.242697, 385.851143)"><g><path d="M 21.046875 0.671875 C 16.597656 0.671875 12.476562 -0.289062 8.6875 -2.21875 C 4.894531 -4.15625 1.8125 -6.90625 -0.5625 -10.46875 L 4.34375 -16.046875 C 8.65625 -9.648438 14.265625 -6.453125 21.171875 -6.453125 C 30.816406 -6.453125 35.640625 -12.171875 35.640625 -23.609375 L 35.640625 -70.84375 L 7.125 -70.84375 L 7.125 -77.96875 L 43.78125 -77.96875 L 43.78125 -23.953125 C 43.78125 -15.785156 41.863281 -9.640625 38.03125 -5.515625 C 34.207031 -1.390625 28.546875 0.671875 21.046875 0.671875 Z M 21.046875 0.671875 "/></g></g></g><g fill="#737373" fill-opacity="1"><g transform="translate(584.027614, 385.851143)"><g><path d="M 67.84375 -7.125 L 67.84375 0 L 12.703125 0 L 12.703125 -77.96875 L 66.171875 -77.96875 L 66.171875 -70.84375 L 20.9375 -70.84375 L 20.9375 -43.109375 L 61.265625 -43.109375 L 61.265625 -36.09375 L 20.9375 -36.09375 L 20.9375 -7.125 Z M 67.84375 -7.125 "/></g></g></g><g fill="#737373" fill-opacity="1"><g transform="translate(658.518816, 385.851143)"><g><path d="M 119.75 -77.96875 L 93.453125 0 L 84.765625 0 L 61.9375 -66.5 L 38.984375 0 L 30.40625 0 L 4.125 -77.96875 L 12.59375 -77.96875 L 35.09375 -10.921875 L 58.375 -77.96875 L 66.046875 -77.96875 L 89 -10.578125 L 111.84375 -77.96875 Z M 119.75 -77.96875 "/></g></g></g><g fill="#737373" fill-opacity="1"><g transform="translate(782.225427, 385.851143)"><g><path d="M 67.84375 -7.125 L 67.84375 0 L 12.703125 0 L 12.703125 -77.96875 L 66.171875 -77.96875 L 66.171875 -70.84375 L 20.9375 -70.84375 L 20.9375 -43.109375 L 61.265625 -43.109375 L 61.265625 -36.09375 L 20.9375 -36.09375 L 20.9375 -7.125 Z M 67.84375 -7.125 "/></g></g></g><g fill="#737373" fill-opacity="1"><g transform="translate(856.716629, 385.851143)"><g><path d="M 12.703125 -77.96875 L 20.9375 -77.96875 L 20.9375 -7.125 L 64.609375 -7.125 L 64.609375 0 L 12.703125 0 Z M 12.703125 -77.96875 "/></g></g></g><g fill="#737373" fill-opacity="1"><g transform="translate(922.300045, 385.851143)"><g><path d="M 12.703125 -77.96875 L 20.9375 -77.96875 L 20.9375 -7.125 L 64.609375 -7.125 L 64.609375 0 L 12.703125 0 Z M 12.703125 -77.96875 "/></g></g></g><g fill="#737373" fill-opacity="1"><g transform="translate(987.883462, 385.851143)"><g><path d="M 67.84375 -7.125 L 67.84375 0 L 12.703125 0 L 12.703125 -77.96875 L 66.171875 -77.96875 L 66.171875 -70.84375 L 20.9375 -70.84375 L 20.9375 -43.109375 L 61.265625 -43.109375 L 61.265625 -36.09375 L 20.9375 -36.09375 L 20.9375 -7.125 Z M 67.84375 -7.125 "/></g></g></g><g fill="#737373" fill-opacity="1"><g transform="translate(1062.374664, 385.851143)"><g><path d="M 65.9375 0 L 48.125 -25.0625 C 46.113281 -24.84375 44.035156 -24.734375 41.890625 -24.734375 L 20.9375 -24.734375 L 20.9375 0 L 12.703125 0 L 12.703125 -77.96875 L 41.890625 -77.96875 C 51.835938 -77.96875 59.628906 -75.59375 65.265625 -70.84375 C 70.910156 -66.09375 73.734375 -59.554688 73.734375 -51.234375 C 73.734375 -45.148438 72.191406 -40.007812 69.109375 -35.8125 C 66.035156 -31.613281 61.640625 -28.585938 55.921875 -26.734375 L 74.96875 0 Z M 41.65625 -31.75 C 49.382812 -31.75 55.289062 -33.457031 59.375 -36.875 C 63.457031 -40.289062 65.5 -45.078125 65.5 -51.234375 C 65.5 -57.546875 63.457031 -62.390625 59.375 -65.765625 C 55.289062 -69.148438 49.382812 -70.84375 41.65625 -70.84375 L 20.9375 -70.84375 L 20.9375 -31.75 Z M 41.65625 -31.75 "/></g></g></g><g fill="#737373" fill-opacity="1"><g transform="translate(1142.878597, 385.851143)"><g><path d="M 34.203125 0.671875 C 28.410156 0.671875 22.859375 -0.253906 17.546875 -2.109375 C 12.234375 -3.972656 8.128906 -6.425781 5.234375 -9.46875 L 8.46875 -15.8125 C 11.289062 -12.988281 15.039062 -10.703125 19.71875 -8.953125 C 24.394531 -7.210938 29.222656 -6.34375 34.203125 -6.34375 C 41.179688 -6.34375 46.414062 -7.625 49.90625 -10.1875 C 53.394531 -12.75 55.140625 -16.070312 55.140625 -20.15625 C 55.140625 -23.28125 54.191406 -25.769531 52.296875 -27.625 C 50.398438 -29.476562 48.078125 -30.90625 45.328125 -31.90625 C 42.585938 -32.914062 38.765625 -34.015625 33.859375 -35.203125 C 27.992188 -36.679688 23.316406 -38.109375 19.828125 -39.484375 C 16.335938 -40.859375 13.347656 -42.957031 10.859375 -45.78125 C 8.367188 -48.601562 7.125 -52.425781 7.125 -57.25 C 7.125 -61.1875 8.160156 -64.769531 10.234375 -68 C 12.316406 -71.226562 15.507812 -73.804688 19.8125 -75.734375 C 24.125 -77.671875 29.476562 -78.640625 35.875 -78.640625 C 40.320312 -78.640625 44.679688 -78.023438 48.953125 -76.796875 C 53.222656 -75.578125 56.921875 -73.890625 60.046875 -71.734375 L 57.25 -65.15625 C 53.988281 -67.3125 50.5 -68.925781 46.78125 -70 C 43.070312 -71.082031 39.4375 -71.625 35.875 -71.625 C 29.039062 -71.625 23.894531 -70.304688 20.4375 -67.671875 C 16.988281 -65.035156 15.265625 -61.640625 15.265625 -57.484375 C 15.265625 -54.359375 16.207031 -51.847656 18.09375 -49.953125 C 19.988281 -48.066406 22.363281 -46.617188 25.21875 -45.609375 C 28.082031 -44.609375 31.929688 -43.515625 36.765625 -42.328125 C 42.484375 -40.921875 47.101562 -39.53125 50.625 -38.15625 C 54.15625 -36.78125 57.144531 -34.695312 59.59375 -31.90625 C 62.039062 -29.125 63.265625 -25.359375 63.265625 -20.609375 C 63.265625 -16.671875 62.207031 -13.085938 60.09375 -9.859375 C 57.976562 -6.628906 54.726562 -4.066406 50.34375 -2.171875 C 45.96875 -0.273438 40.585938 0.671875 34.203125 0.671875 Z M 34.203125 0.671875 "/></g></g></g></svg>